<svg xmlns="http://www.w3.org/2000/svg" width="40" height="40" viewBox="0 0 40 40" fill="none">
  <!-- Background Square with Rounded Corners -->
  <rect x="2" y="2" width="36" height="36" rx="8" fill="url(#gradient)" />
  
  <!-- Calculator Display -->
  <rect x="8" y="8" width="24" height="8" rx="2" fill="white" opacity="0.9"/>
  
  <!-- Display Numbers -->
  <rect x="10" y="11" width="12" height="2" rx="1" fill="url(#gradient)" opacity="0.5"/>
  <rect x="24" y="11" width="6" height="2" rx="1" fill="url(#gradient)" opacity="0.5"/>
  
  <!-- Calculator Buttons Grid -->
  <!-- Row 1 -->
  <rect x="8" y="19" width="5" height="4" rx="1" fill="white" opacity="0.8"/>
  <rect x="15" y="19" width="5" height="4" rx="1" fill="white" opacity="0.8"/>
  <rect x="22" y="19" width="5" height="4" rx="1" fill="white" opacity="0.8"/>
  <rect x="29" y="19" width="3" height="4" rx="1" fill="#10b981" opacity="0.9"/>
  
  <!-- Row 2 -->
  <rect x="8" y="25" width="5" height="4" rx="1" fill="white" opacity="0.8"/>
  <rect x="15" y="25" width="5" height="4" rx="1" fill="white" opacity="0.8"/>
  <rect x="22" y="25" width="5" height="4" rx="1" fill="white" opacity="0.8"/>
  <rect x="29" y="25" width="3" height="11" rx="1" fill="#10b981" opacity="0.9"/>
  
  <!-- Row 3 -->
  <rect x="8" y="32" width="12" height="4" rx="1" fill="white" opacity="0.8"/>
  <rect x="22" y="32" width="5" height="4" rx="1" fill="white" opacity="0.8"/>
  
  <!-- Gradient Definition -->
  <defs>
    <linearGradient id="gradient" x1="0%" y1="0%" x2="100%" y2="100%">
      <stop offset="0%" style="stop-color:#6366f1;stop-opacity:1" />
      <stop offset="100%" style="stop-color:#4f46e5;stop-opacity:1" />
    </linearGradient>
  </defs>
</svg>
